# xmcd
#
# Track frame offsets: 
#        150
#        13729
#        33246
#        52552
#        68961
#        85223
#        99783
#        116246
#        130503
#        146840
#        164250
#        179994
#        197129
#        214427
#        230326
#        246877
#        260720
#        276473
#        293021
#        307061
#
# Disc length: 4298 seconds
#
# Revision: 0
# Processed by: cddbd v1.5.2PL0 Copyright (c) Steve Scherf et al.
# Submitted via: ExactAudioCopy v1.1
#
DISCID=3010c814
DTITLE=The 5th Dimension - The Complete Soul City-Bell Singles 1966-19
DTITLE=75 [CD3]
DYEAR=1900
DGENRE=Pop
TTITLE0=Light Sings
TTITLE1=Viva Tirado
TTITLE2=Never My Love
TTITLE3=Together Let's Find Love
TTITLE4=I Just Wanta Be Your Friend
TTITLE5=(Last Night) I Didn't Get To Sleep At All
TTITLE6=The River Witch
TTITLE7=If I Could Reach You
TTITLE8=Tomorrow Belongs To The Children
TTITLE9=Living Together Growing Together
TTITLE10=What Do I Need To Be Me
TTITLE11=Everything's Been Changed
TTITLE12=There Never Was A Day
TTITLE13=Ashes To Ashes
TTITLE14=Flashback
TTITLE15=Diggin' For A Livin'
TTITLE16=Harlem
TTITLE17=My Song
TTITLE18=No Love In The Room
TTITLE19=I Don't Know How To Look For Love
EXTD=
EXTT0=
EXTT1=
EXTT2=
EXTT3=
EXTT4=
EXTT5=
EXTT6=
EXTT7=
EXTT8=
EXTT9=
EXTT10=
EXTT11=
EXTT12=
EXTT13=
EXTT14=
EXTT15=
EXTT16=
EXTT17=
EXTT18=
EXTT19=
PLAYORDER=
